<?xml version="1.0" encoding="UTF-8" standalone="no"?>
<!-- Created with Inkscape (http://www.inkscape.org/) -->

<svg
   width="11cm"
   height="11cm"
   viewBox="0 0 110 110"
   version="1.1"
   id="svg5"
   inkscape:version="1.1.2 (0a00cf5339, 2022-02-04)"
   sodipodi:docname="flor.svg"
   xmlns:inkscape="http://www.inkscape.org/namespaces/inkscape"
   xmlns:sodipodi="http://sodipodi.sourceforge.net/DTD/sodipodi-0.dtd"
   xmlns="http://www.w3.org/2000/svg"
   xmlns:svg="http://www.w3.org/2000/svg">
  <sodipodi:namedview
     id="namedview7"
     pagecolor="#ffffff"
     bordercolor="#666666"
     borderopacity="1.0"
     inkscape:pageshadow="2"
     inkscape:pageopacity="0.0"
     inkscape:pagecheckerboard="0"
     inkscape:document-units="mm"
     showgrid="false"
     width="11mm"
     units="cm"
     inkscape:zoom="0.75187991"
     inkscape:cx="397.00489"
     inkscape:cy="349.1249"
     inkscape:window-width="1850"
     inkscape:window-height="1016"
     inkscape:window-x="70"
     inkscape:window-y="27"
     inkscape:window-maximized="1"
     inkscape:current-layer="layer1" />
  <defs
     id="defs2" />
  <g
     inkscape:label="Capa 1"
     inkscape:groupmode="layer"
     id="layer1">
    <path
       style="fill:none;stroke:#4bb34e;stroke-width:0.131752;stroke-opacity:1"
       d="m 56.127479,103.66673 c -2.005031,-0.34731 -3.460671,-1.18202 -4.558561,-2.61401 -0.91959,-1.199441 -1.23092,-2.163651 -1.33119,-4.122881 -0.0417,-0.81521 -0.11429,-1.48221 -0.16125,-1.48221 -0.047,0 -0.37604,0.29508 -0.73127,0.65574 -1.72305,1.74935 -5.29263,3.57654 -8.60864,4.406551 -1.925642,0.482 -3.202208,0.64255 -5.162456,0.64926 -3.778326,0.0129 -6.526807,-0.9824 -9.855138,-3.568871 -4.260528,-3.31089 -7.674195,-8.587755 -8.182667,-12.648814 -0.311194,-2.485436 0.327167,-4.210222 2.282891,-6.168132 1.920752,-1.9229 4.414872,-3.365377 7.705226,-4.456328 3.023788,-1.002568 4.240701,-1.198407 7.456803,-1.200029 2.524991,-0.0013 2.864673,0.02626 3.886693,0.315084 4.003908,1.131494 7.619928,4.076619 10.523128,8.570727 l 0.80464,1.245574 0.0344,-5.527524 0.0344,-5.527523 0.65876,0.02727 c 0.36232,0.015 1.87418,0.08156 3.35968,0.14793 2.571591,0.114885 6.625851,0.02857 8.399211,-0.178812 l 0.82346,-0.0963 0.008,5.583552 c 0.006,4.372697 0.0418,5.529954 0.16469,5.336394 2.44065,-3.843622 4.32963,-5.901733 7.07082,-7.703882 1.48868,-0.978713 3.12086,-1.664355 4.77219,-2.004689 1.90532,-0.392681 5.35833,-0.311764 7.68152,0.180008 3.0575,0.647208 6.30543,1.971279 8.55598,3.487972 1.9424,1.309032 3.5588,3.136011 4.16421,4.706722 0.42856,1.11189 0.42659,3.098381 -0.005,4.677205 -1.3732,5.027575 -5.8443,10.464455 -10.80514,13.139125 -3.31527,1.787461 -7.03758,2.152541 -11.5942,1.137171 -3.44708,-0.768121 -7.4323,-2.749331 -9.21715,-4.582201 -0.32306,-0.33175 -0.63433,-0.60318 -0.6917,-0.60318 -0.0574,0 -0.1052,0.51878 -0.10627,1.15283 -0.002,1.32182 -0.2518,2.52998 -0.70813,3.428091 -0.79575,1.56614 -2.24697,2.82403 -3.81783,3.30922 -0.84658,0.26148 -2.28283,0.42725 -2.85022,0.32896 z M 48.959188,46.237922 c -1.74889,-1.620811 -2.29546,-8.333012 -0.97032,-11.915935 0.49278,-1.332376 1.07358,-1.975968 1.78754,-1.980785 1.99041,-0.01343 3.17973,6.661859 2.00517,11.254335 -0.64586,2.525298 -1.79145,3.597825 -2.82239,2.642385 z m 14.215421,-0.03272 c -0.46635,-0.460487 -0.90939,-1.419047 -1.26905,-2.745674 -0.43976,-1.622049 -0.50185,-5.542328 -0.11772,-7.432191 0.6076,-2.989352 1.77422,-4.342164 2.94818,-3.418726 0.51461,0.404791 1.08709,1.734202 1.41548,3.286973 0.40471,1.913726 0.41552,5.161328 0.0232,6.982872 -0.36835,1.710392 -0.74518,2.644614 -1.29516,3.210911 -0.59236,0.609933 -1.16517,0.648848 -1.70496,0.115835 z"
       id="path3576" />
    <path
       style="fill:none;stroke:#f1c735;stroke-width:0.131752;stroke-opacity:1"
       d="m 49.935118,72.127468 c -0.30663,-0.0982 -0.30944,-0.106394 -0.0407,-0.118619 0.15876,-0.0072 0.32531,0.04616 0.3701,0.118619 0.0448,0.07246 0.0631,0.125842 0.0407,0.11862 -0.0224,-0.0072 -0.18894,-0.0606 -0.3701,-0.11862 z m 13.809291,-0.09 c 0.0951,-0.03806 0.20874,-0.03338 0.25252,0.0104 0.0438,0.04378 -0.034,0.07492 -0.17292,0.0692 -0.15349,-0.0063 -0.18471,-0.03754 -0.0796,-0.0796 z M 48.848158,71.908459 c 0.0906,-0.03655 0.2388,-0.03655 0.32938,0 0.0906,0.03655 0.0165,0.06646 -0.16469,0.06646 -0.18116,0 -0.25527,-0.02991 -0.16469,-0.06646 z m 15.810281,0 c 0.0906,-0.03655 0.2388,-0.03655 0.32938,0 0.0906,0.03655 0.0165,0.06646 -0.16469,0.06646 -0.18116,0 -0.25527,-0.02991 -0.16469,-0.06646 z M 48.065878,71.773962 c 0.0951,-0.03806 0.20875,-0.03338 0.25253,0.0104 0.0438,0.04378 -0.034,0.07492 -0.17293,0.0692 -0.15348,-0.0063 -0.1847,-0.03754 -0.0796,-0.0796 z m 17.391311,0 c 0.0951,-0.03806 0.20874,-0.03338 0.25252,0.0104 0.0438,0.04378 -0.034,0.07492 -0.17292,0.0692 -0.15349,-0.0063 -0.18471,-0.03754 -0.0796,-0.0796 z M 47.275368,71.64221 c 0.0951,-0.03806 0.20874,-0.03338 0.25252,0.0104 0.0438,0.04378 -0.034,0.07492 -0.17292,0.0692 -0.15349,-0.0063 -0.18471,-0.03754 -0.0796,-0.0796 z m -0.79052,-0.131752 c 0.0951,-0.03806 0.20875,-0.03338 0.25253,0.0104 0.0438,0.04378 -0.034,0.07492 -0.17293,0.0692 -0.15348,-0.0063 -0.1847,-0.03754 -0.0796,-0.0796 z m -0.65876,-0.131753 c 0.0951,-0.03806 0.20875,-0.03338 0.25253,0.0104 0.0438,0.04378 -0.034,0.07492 -0.17293,0.0692 -0.15348,-0.0063 -0.1847,-0.03754 -0.0796,-0.0796 z m 21.870891,0 c 0.0951,-0.03806 0.20874,-0.03338 0.25252,0.0104 0.0438,0.04378 -0.034,0.07492 -0.17292,0.0692 -0.15349,-0.0063 -0.18471,-0.03754 -0.0796,-0.0796 z M 45.299078,71.246953 c 0.0951,-0.03806 0.20875,-0.03338 0.25253,0.0104 0.0438,0.04378 -0.034,0.07492 -0.17293,0.0692 -0.15348,-0.0063 -0.1847,-0.03754 -0.0796,-0.0796 z m -0.65876,-0.131752 c 0.0951,-0.03806 0.20875,-0.03338 0.25253,0.01039 0.0438,0.04378 -0.034,0.07492 -0.17293,0.0692 -0.15348,-0.0063 -0.1847,-0.03754 -0.0796,-0.0796 z m -0.52701,-0.131752 c 0.0951,-0.03806 0.20875,-0.03338 0.25253,0.0104 0.0438,0.04378 -0.034,0.07492 -0.17293,0.0692 -0.15348,-0.0063 -0.1847,-0.03754 -0.0796,-0.0796 z m 25.296451,0 c 0.0951,-0.03806 0.20874,-0.03338 0.25252,0.0104 0.0438,0.04378 -0.034,0.07492 -0.17292,0.0692 -0.15349,-0.0063 -0.18471,-0.03754 -0.0796,-0.0796 z m 2.59387,-0.700513 c 0.14493,-0.06228 0.35244,-0.113232 0.46113,-0.113232 0.12457,0 0.10022,0.04186 -0.0659,0.113232 -0.14493,0.06228 -0.35244,0.113232 -0.46114,0.113232 -0.12457,0 -0.10021,-0.04186 0.0659,-0.113232 z m 7.83926,-3.082083 c 0,-0.02848 0.092,-0.08709 0.20447,-0.130244 0.11725,-0.04499 0.17014,-0.0229 0.12398,0.05178 -0.0774,0.125193 -0.32845,0.185172 -0.32845,0.07846 z M 32.247367,66.453148 c -0.27174,-0.143456 -0.494072,-0.290261 -0.494072,-0.326234 0,-0.03597 0.237155,0.05558 0.52701,0.203453 0.289855,0.147873 0.527009,0.297299 0.527009,0.332058 0,0.08619 -9.22e-4,0.08584 -0.559947,-0.209277 z m -1.621722,-0.98644 c -0.245589,-0.196758 -0.243974,-0.19919 0.04069,-0.06124 0.163043,0.07901 0.296443,0.171214 0.296443,0.204896 0,0.10082 -0.06833,0.07171 -0.337137,-0.143656 z m 21.812763,-0.665192 c -4.79247,-0.519987 -9.10845,-1.765804 -13.175231,-3.803061 -2.182986,-1.093568 -2.228194,-1.119483 -3.746896,-2.147971 -8.221996,-5.568049 -12.31783,-13.610371 -11.209849,-22.010962 0.517292,-3.922048 1.929273,-7.216056 4.640307,-10.825361 0.796688,-1.060662 3.392056,-3.596842 4.843855,-4.733388 4.387058,-3.434428 10.528424,-6.000835 16.539784,-6.911787 5.871201,-0.889714 12.105401,-0.540143 17.588931,0.986265 5.72903,1.594747 10.96415,4.558721 14.72696,8.337984 3.24909,3.263306 5.34574,6.827173 6.34928,10.792474 2.54734,10.065347 -2.97667,20.519658 -13.82986,26.173321 -4.47079,2.328927 -9.28065,3.717328 -14.61446,4.218565 -1.93894,0.182209 -6.091161,0.143271 -8.112821,-0.07608 z m 8.893281,-9.329899 c 5.28088,-0.969452 9.76034,-3.27107 12.77595,-6.564479 5.43751,-5.938421 5.13386,-13.984176 -0.74253,-19.674184 -3.25664,-3.153354 -7.73601,-5.202465 -12.95568,-5.926637 -2.37709,-0.329796 -6.525451,-0.204693 -8.742871,0.263661 -4.48279,0.946835 -8.23311,2.801222 -11.199082,5.537494 -0.665381,0.613851 -2.044905,2.263012 -2.546158,3.04382 -1.370542,2.134909 -2.215453,4.922537 -2.215453,7.30947 0,1.124271 0.417512,3.541958 0.745378,4.316262 0.905348,2.138108 1.474597,3.087436 2.826283,4.71334 3.182532,3.828169 8.909182,6.619455 14.807792,7.217609 1.288181,0.13063 6.102721,-0.02641 7.246371,-0.236356 z m 23.51779,8.834532 c 0,-0.03623 0.17787,-0.192528 0.39526,-0.347324 0.21739,-0.154795 0.39525,-0.251803 0.39525,-0.215571 0,0.03623 -0.17786,0.192528 -0.39525,0.347324 -0.21739,0.154795 -0.39526,0.251803 -0.39526,0.215571 z m -56.982877,-0.688247 -0.395257,-0.339616 0.428195,0.283365 c 0.235508,0.155852 0.428195,0.308973 0.428195,0.340269 0,0.09862 -0.05579,0.06426 -0.461133,-0.284018 z m 57.905147,0.02767 c 0,-0.02736 0.10375,-0.131113 0.23056,-0.230566 0.20897,-0.163883 0.21363,-0.159223 0.0497,0.04974 -0.17212,0.219467 -0.28031,0.28926 -0.28031,0.180822 z m -59.36694,-1.16896 -0.250987,-0.296443 0.296443,0.250987 c 0.278582,0.235866 0.356422,0.341899 0.250987,0.341899 -0.025,0 -0.158401,-0.1334 -0.296443,-0.296443 z m 60.55271,0.246698 c 0,-0.02736 0.10375,-0.131113 0.23056,-0.230566 0.20897,-0.163883 0.21363,-0.159223 0.0497,0.04974 -0.17212,0.219466 -0.28031,0.28926 -0.28031,0.180822 z m -61.211471,-0.773707 -0.250987,-0.296443 0.296443,0.250987 c 0.278582,0.235865 0.356421,0.341898 0.250986,0.341898 -0.025,0 -0.1584,-0.133399 -0.296442,-0.296442 z m 62.067861,0.03294 c 0.13115,-0.144928 0.26811,-0.263505 0.30434,-0.263505 0.0362,0 -0.0414,0.118577 -0.17259,0.263505 -0.13116,0.144927 -0.26811,0.263504 -0.30435,0.263504 -0.0362,0 0.0414,-0.118577 0.1726,-0.263504 z m -63.043486,-0.85639 c -0.32003,-0.326087 -0.552229,-0.592886 -0.515997,-0.592886 0.03623,0 0.327719,0.266799 0.647749,0.592886 0.320031,0.326087 0.55223,0.592885 0.515998,0.592885 -0.03623,0 -0.32772,-0.266798 -0.64775,-0.592885 z m 64.031626,0 c 0.24582,-0.253623 0.47659,-0.461133 0.51282,-0.461133 0.0362,0 -0.13525,0.20751 -0.38107,0.461133 -0.24582,0.253623 -0.47659,0.461133 -0.51282,0.461133 -0.0362,0 0.13525,-0.20751 0.38107,-0.461133 z m 1.31752,-1.169639 c 0,-0.02736 0.10376,-0.131114 0.23057,-0.230567 0.20897,-0.163883 0.21363,-0.159222 0.0497,0.04975 -0.17211,0.219466 -0.28031,0.289259 -0.28031,0.180822 z m -68.123036,-1.630098 -0.454041,-0.494071 0.494071,0.454041 c 0.271739,0.249722 0.494071,0.472054 0.494071,0.494071 0,0.100609 -0.111491,0.0058 -0.534101,-0.454041 z m 69.308806,0.321092 c 0,-0.02267 0.19269,-0.215362 0.4282,-0.428195 l 0.42819,-0.386968 -0.38697,0.428195 c -0.3607,0.399138 -0.46942,0.488755 -0.46942,0.386968 z m -70.170622,-1.309234 -0.250987,-0.296443 0.296443,0.250987 c 0.278582,0.235866 0.356421,0.341899 0.250987,0.341899 -0.025,0 -0.158401,-0.1334 -0.296443,-0.296443 z m 71.356392,-0.03294 c 0.17019,-0.18116 0.33908,-0.329381 0.37532,-0.329381 0.0362,0 -0.0734,0.148221 -0.24356,0.329381 -0.1702,0.181159 -0.33909,0.329381 -0.37532,0.329381 -0.0362,0 0.0734,-0.148222 0.24356,-0.329381 z m -71.953566,-0.6917 c -0.163883,-0.208967 -0.159223,-0.213627 0.04974,-0.04974 0.126812,0.09945 0.230567,0.203208 0.230567,0.230566 0,0.108438 -0.108194,0.03865 -0.280311,-0.180822 z m 72.348826,0.180822 c 0,-0.02736 0.10376,-0.131113 0.23057,-0.230566 0.20896,-0.163883 0.21362,-0.159223 0.0497,0.04974 -0.17212,0.219467 -0.28031,0.28926 -0.28031,0.180822 z M 19.953198,55.833509 c -0.202908,-0.266025 -0.301638,-0.442097 -0.219401,-0.391273 0.168672,0.104245 0.739056,0.874956 0.647533,0.874956 -0.03257,0 -0.225226,-0.217658 -0.428132,-0.483683 z m 74.318061,-0.883495 c 0.12454,-0.190081 0.25136,-0.345602 0.2818,-0.345602 0.0953,0 -0.21145,0.507769 -0.36354,0.601769 -0.0796,0.04919 -0.0428,-0.06609 0.0817,-0.256167 z m -75.42969,-0.740859 c -0.07756,-0.144928 -0.111379,-0.263505 -0.07515,-0.263505 0.03623,0 0.129337,0.118577 0.2069,0.263505 0.07756,0.144927 0.111379,0.263504 0.07515,0.263504 -0.03623,0 -0.129337,-0.118577 -0.2069,-0.263504 z m -0.658761,-1.054019 c -0.07756,-0.144927 -0.111379,-0.263504 -0.07515,-0.263504 0.03623,0 0.129336,0.118577 0.206899,0.263504 0.07756,0.144928 0.111379,0.263505 0.07515,0.263505 -0.03623,0 -0.129337,-0.118577 -0.206899,-0.263505 z m 77.997371,-1.449275 c 0.14787,-0.289855 0.2985,-0.527009 0.33473,-0.527009 0.0362,0 -0.0551,0.237154 -0.20298,0.527009 -0.14787,0.289855 -0.2985,0.527009 -0.33474,0.527009 -0.0362,0 0.0551,-0.237154 0.20299,-0.527009 z M 17.254503,51.431072 c -0.08089,-0.151133 -0.122246,-0.299605 -0.09191,-0.329937 0.03033,-0.03033 0.122797,0.09332 0.205479,0.274788 0.181564,0.39849 0.09316,0.44142 -0.113565,0.05515 z m 79.324966,-0.449849 c 0,-0.07246 0.0575,-0.220685 0.12772,-0.329381 0.0702,-0.108695 0.12771,-0.138339 0.12771,-0.06588 0,0.07246 -0.0575,0.220685 -0.12771,0.329381 -0.0703,0.108696 -0.12772,0.13834 -0.12772,0.06588 z M 16.552181,49.922111 c -0.127139,-0.331316 -0.08963,-0.416805 0.06568,-0.149715 0.0769,0.132246 0.112068,0.268203 0.07815,0.302125 -0.03392,0.03392 -0.09865,-0.03466 -0.14383,-0.15241 z m 81.614678,-3.16794 c 0.006,-0.153485 0.0376,-0.184704 0.0796,-0.0796 0.0381,0.09511 0.0334,0.208745 -0.0104,0.252525 -0.0438,0.04378 -0.0749,-0.03404 -0.0692,-0.172925 z M 15.162906,45.700152 c 0.0063,-0.153485 0.03754,-0.184703 0.0796,-0.0796 0.03806,0.09511 0.03338,0.208746 -0.0104,0.252526 -0.04378,0.04378 -0.07492,-0.03404 -0.0692,-0.172925 z m 83.673123,-1.899429 c 0,-0.18116 0.0299,-0.255271 0.0665,-0.164691 0.0365,0.09058 0.0365,0.238801 0,0.329381 -0.0366,0.09058 -0.0665,0.01647 -0.0665,-0.16469 z m -84.06838,-0.07686 c 0.0063,-0.153484 0.03754,-0.184703 0.0796,-0.0796 0.03806,0.09511 0.03338,0.208745 -0.0104,0.252525 -0.04378,0.04378 -0.07492,-0.03404 -0.0692,-0.172925 z m 84.18973,-0.658757 c 0.006,-0.153485 0.0375,-0.184704 0.0796,-0.0796 0.0381,0.09511 0.0334,0.208746 -0.0104,0.252526 -0.0438,0.04378 -0.0749,-0.03404 -0.0692,-0.172925 z m -84.31108,-0.18665 c 0,-0.181159 0.0299,-0.25527 0.06645,-0.16469 0.03655,0.09058 0.03655,0.238801 0,0.329381 -0.03655,0.09058 -0.06645,0.01647 -0.06645,-0.164691 z m 84.463,-1.054018 c 0,-0.253623 0.0271,-0.357378 0.0602,-0.230567 0.0331,0.126812 0.0331,0.334322 0,0.461134 -0.0331,0.126811 -0.0602,0.02306 -0.0602,-0.230567 z M 14.526969,41.62681 c 0.0015,-0.289856 0.02844,-0.392919 0.05996,-0.229031 0.03151,0.163888 0.03032,0.401042 -0.0027,0.527009 -0.03298,0.125967 -0.05876,-0.0081 -0.0573,-0.297978 z m 84.71939,-2.305666 c 0,-0.326087 0.0257,-0.459486 0.0571,-0.296443 0.0314,0.163044 0.0314,0.429842 0,0.592886 -0.0314,0.163043 -0.0571,0.02964 -0.0571,-0.296443 z M 14.531426,37.278983 c 9.88e-4,-0.362318 0.02658,-0.494902 0.05686,-0.294631 0.03028,0.200272 0.02948,0.496714 -0.0018,0.658762 -0.03127,0.162047 -0.05605,-0.0018 -0.05506,-0.364131 z m 84.577873,-0.197628 c 0,-0.253623 0.0271,-0.357378 0.0602,-0.230567 0.0331,0.126812 0.0331,0.334322 0,0.461134 -0.0331,0.126811 -0.0602,0.02306 -0.0602,-0.230567 z m -84.463,-1.054018 c 0,-0.18116 0.0299,-0.255271 0.06645,-0.164691 0.03655,0.09058 0.03655,0.238801 0,0.329381 -0.03655,0.09058 -0.06645,0.01647 -0.06645,-0.16469 z m 84.32148,-0.263505 c 0,-0.18116 0.0299,-0.25527 0.0665,-0.16469 0.0366,0.09058 0.0366,0.238801 0,0.32938 -0.0366,0.09058 -0.0665,0.01647 -0.0665,-0.16469 z m -84.20013,-0.603864 c 0.0063,-0.153485 0.03754,-0.184704 0.0796,-0.0796 0.03806,0.09511 0.03338,0.208744 -0.0104,0.252526 -0.04378,0.04378 -0.07492,-0.03404 -0.0692,-0.172925 z m 84.05798,-0.131753 c 0.006,-0.153485 0.0375,-0.184703 0.0796,-0.0796 0.038,0.09511 0.0334,0.208744 -0.0104,0.252525 -0.0438,0.04378 -0.0749,-0.03404 -0.0692,-0.172925 z m -0.13176,-0.790514 c 0.006,-0.153484 0.0376,-0.184703 0.0796,-0.0796 0.0381,0.09511 0.0334,0.208744 -0.0104,0.252525 -0.0438,0.04378 -0.0749,-0.03404 -0.0692,-0.172925 z M 15.031154,33.710692 c 0.0063,-0.153485 0.03754,-0.184703 0.0796,-0.0796 0.03806,0.09511 0.03338,0.208745 -0.0104,0.252526 -0.04378,0.04378 -0.07492,-0.03404 -0.0692,-0.172925 z m 0.263505,-1.054018 c 0.0063,-0.153485 0.03754,-0.184704 0.0796,-0.0796 0.03806,0.09511 0.03338,0.208744 -0.0104,0.252526 -0.04378,0.04378 -0.07492,-0.03404 -0.0692,-0.172925 z m 0.395257,-1.317523 c 0.0063,-0.153485 0.03754,-0.184704 0.0796,-0.0796 0.03806,0.09511 0.03338,0.208744 -0.0104,0.252526 -0.04378,0.04378 -0.07492,-0.03404 -0.0692,-0.172925 z m 0.125385,-0.384278 c 0,-0.07246 0.05747,-0.220685 0.127718,-0.329381 0.07024,-0.108696 0.127717,-0.13834 0.127717,-0.06588 0,0.07246 -0.05747,0.220685 -0.127717,0.329381 -0.07024,0.108695 -0.127718,0.13834 -0.127718,0.06588 z m 0.658762,-1.71278 c 0,-0.07246 0.05747,-0.220685 0.127717,-0.329381 0.07024,-0.108696 0.127717,-0.13834 0.127717,-0.06588 0,0.07246 -0.05747,0.220685 -0.127717,0.329381 -0.07024,0.108695 -0.127717,0.13834 -0.127717,0.06588 z m 0.391222,-0.904065 c 0,-0.14301 0.786305,-1.665105 0.860183,-1.665105 0.03623,0 -0.11987,0.370553 -0.346893,0.823452 -0.430305,0.858436 -0.51329,0.99451 -0.51329,0.841653 z m 79.731554,-0.287349 c -0.22075,-0.484491 -0.17864,-0.587851 0.0601,-0.147399 0.11146,0.205681 0.17801,0.398619 0.14788,0.428751 -0.0301,0.03013 -0.12371,-0.09648 -0.20794,-0.281352 z m -0.74604,-1.509508 c -0.11242,-0.217392 -0.17475,-0.395257 -0.13852,-0.395257 0.0362,0 0.15785,0.177865 0.27027,0.395257 0.11242,0.217391 0.17475,0.395256 0.13852,0.395256 -0.0362,0 -0.15786,-0.177865 -0.27027,-0.395256 z m -77.799743,-0.52701 c 0.07756,-0.144927 0.170667,-0.263504 0.206899,-0.263504 0.03623,0 0.0024,0.118577 -0.07515,0.263504 -0.07756,0.144928 -0.170668,0.263505 -0.2069,0.263505 -0.03623,0 -0.0024,-0.118577 0.07515,-0.263505 z m 0.527009,-0.922266 c 0.07756,-0.144927 0.170668,-0.263504 0.206899,-0.263504 0.03623,0 0.0024,0.118577 -0.07515,0.263504 -0.07756,0.144928 -0.170668,0.263505 -0.206899,0.263505 -0.03623,0 -0.0024,-0.118577 0.07515,-0.263505 z m 1.054018,-1.581028 c 0.07756,-0.144927 0.170668,-0.263504 0.2069,-0.263504 0.03623,0 0.0024,0.118577 -0.07515,0.263504 -0.07756,0.144928 -0.170668,0.263505 -0.2069,0.263505 -0.03623,0 -0.0024,-0.118577 0.07515,-0.263505 z m 73.764486,-0.757575 c -0.16388,-0.208967 -0.15922,-0.213627 0.0497,-0.04975 0.21946,0.172118 0.28926,0.280311 0.18082,0.280311 -0.0274,0 -0.13111,-0.103755 -0.23057,-0.230566 z M 20.801804,21.950103 c 0.220743,-0.278709 0.505709,-0.589973 0.633257,-0.691699 0.127549,-0.101725 -0.02771,0.126311 -0.345026,0.506745 -0.665489,0.797871 -0.88547,0.939029 -0.288231,0.184954 z m 72.199515,0.27618 c -0.16389,-0.208968 -0.15923,-0.213628 0.0497,-0.04975 0.12681,0.09945 0.23057,0.203208 0.23057,0.230567 0,0.108437 -0.1082,0.03864 -0.28031,-0.180822 z m -0.45685,-0.592886 -0.25099,-0.296443 0.29645,0.250987 c 0.16304,0.138042 0.29644,0.271442 0.29644,0.296443 0,0.105435 -0.10603,0.0276 -0.3419,-0.250987 z m -70.936101,-0.66705 c 0,-0.02267 0.192688,-0.215362 0.428195,-0.428195 l 0.428195,-0.386968 -0.386969,0.428195 c -0.360708,0.399138 -0.469421,0.488755 -0.469421,0.386968 z m 70.145591,-0.255216 -0.25099,-0.296443 0.29644,0.250987 c 0.16305,0.138042 0.29645,0.271441 0.29645,0.296443 0,0.105435 -0.10604,0.0276 -0.3419,-0.250987 z m -1.63889,-1.778656 -0.72014,-0.757576 0.75758,0.720137 c 0.41667,0.396075 0.75758,0.736984 0.75758,0.757576 0,0.09779 -0.12599,-0.01633 -0.79502,-0.720137 z M 24.704547,17.845518 c 0.283036,-0.289855 0.544256,-0.527009 0.580488,-0.527009 0.03623,0 -0.1657,0.237154 -0.448736,0.527009 -0.283035,0.289855 -0.544255,0.52701 -0.580487,0.52701 -0.03623,0 0.165699,-0.237155 0.448735,-0.52701 z m 63.887352,-0.296442 -0.25098,-0.296443 0.29644,0.250987 c 0.16304,0.138042 0.29644,0.271441 0.29644,0.296442 0,0.105435 -0.10603,0.0276 -0.3419,-0.250986 z m -62.767457,-0.6917 c 0.170191,-0.181159 0.339081,-0.329381 0.375313,-0.329381 0.03623,0 -0.07337,0.148222 -0.243561,0.329381 -0.170191,0.181159 -0.339082,0.329381 -0.375314,0.329381 -0.03623,0 0.07337,-0.148222 0.243562,-0.329381 z m 61.845197,-0.09881 -0.25099,-0.296443 0.29644,0.250987 c 0.16305,0.138042 0.29644,0.271441 0.29644,0.296442 0,0.105436 -0.10603,0.0276 -0.34189,-0.250986 z m -61.318188,-0.28031 c 0,-0.02736 0.103755,-0.131115 0.230566,-0.230567 0.208967,-0.163883 0.213628,-0.159223 0.04975,0.04974 -0.172117,0.219466 -0.280311,0.289259 -0.280311,0.180823 z m 60.659418,-0.246699 -0.25098,-0.296443 0.29644,0.250986 c 0.16304,0.138043 0.29644,0.271442 0.29644,0.296443 0,0.105435 -0.10603,0.0276 -0.3419,-0.250986 z M 27.010212,15.951242 c 0,-0.02736 0.103755,-0.131114 0.230567,-0.230566 0.208967,-0.163883 0.213627,-0.159223 0.04974,0.04974 -0.172117,0.219466 -0.280311,0.289259 -0.280311,0.180822 z m 0.52701,-0.395257 c 0,-0.02736 0.103755,-0.131114 0.230566,-0.230566 0.208967,-0.163883 0.213627,-0.159223 0.04975,0.04974 -0.172118,0.219466 -0.280311,0.289259 -0.280311,0.180822 z m 58.349467,-0.180822 c -0.16388,-0.208967 -0.15922,-0.213627 0.0497,-0.04974 0.12681,0.09945 0.23056,0.203207 0.23056,0.230566 0,0.108437 -0.10819,0.03864 -0.28031,-0.180822 z M 28.51648,14.82959 c 0.094,-0.152094 0.601769,-0.458851 0.601769,-0.363544 0,0.03045 -0.155521,0.15726 -0.345602,0.281807 -0.190082,0.124546 -0.305357,0.161328 -0.256167,0.08174 z m 56.447949,-0.113189 c -0.16389,-0.208966 -0.15923,-0.213627 0.0497,-0.04974 0.12681,0.09945 0.23057,0.203208 0.23057,0.230567 0,0.108437 -0.1082,0.03864 -0.28031,-0.180823 z m -1.37435,-0.896596 c -0.24559,-0.196758 -0.24398,-0.199191 0.0407,-0.06124 0.16304,0.07901 0.29644,0.171215 0.29644,0.204897 0,0.100819 -0.0683,0.07171 -0.33713,-0.143656 z m -1.05402,-0.658762 c -0.24559,-0.196758 -0.24398,-0.19919 0.0407,-0.06124 0.16305,0.07901 0.29644,0.171214 0.29644,0.204896 0,0.10082 -0.0683,0.07171 -0.33713,-0.143656 z m -0.65876,-0.395257 c -0.24559,-0.196758 -0.24398,-0.19919 0.0407,-0.06124 0.16304,0.07901 0.29644,0.171214 0.29644,0.204896 0,0.10082 -0.0683,0.07171 -0.33713,-0.143656 z m -50.124004,0.01654 c 0,-0.03623 0.118577,-0.129337 0.263505,-0.2069 0.144928,-0.07756 0.263505,-0.111379 0.263505,-0.07515 0,0.03623 -0.118577,0.129337 -0.263505,0.206899 -0.144928,0.07756 -0.263505,0.11138 -0.263505,0.07515 z m 48.484854,-0.865661 c -0.11875,-0.07674 -0.135,-0.128523 -0.0407,-0.129735 0.0863,-0.0011 0.19356,0.05727 0.23835,0.129735 0.10109,0.163573 0.0555,0.163573 -0.19763,0 z M 34.182957,11.4628 c 0.140661,-0.112693 0.313586,-0.204897 0.384278,-0.204897 0.167396,0 0.09265,0.06086 -0.310646,0.252927 -0.310576,0.147911 -0.31478,0.145168 -0.07363,-0.04803 z m 9.798601,-3.5887059 c 0.0951,-0.03806 0.20874,-0.03338 0.25252,0.0104 0.0438,0.04378 -0.034,0.07492 -0.17292,0.0692 -0.15349,-0.0063 -0.1847,-0.03754 -0.0796,-0.0796 z m 25.559951,0 c 0.0951,-0.03806 0.20874,-0.03338 0.25252,0.0104 0.0438,0.04378 -0.034,0.07492 -0.17292,0.0692 -0.15349,-0.0063 -0.1847,-0.03754 -0.0796,-0.0796 z m -2.5033,-0.52701 c 0.0951,-0.03806 0.20875,-0.03338 0.25253,0.0104 0.0438,0.04378 -0.034,0.07492 -0.17292,0.0692 -0.15349,-0.0063 -0.18471,-0.03754 -0.0796,-0.0796 z M 47.934128,7.0835801 c 0.0951,-0.03806 0.20874,-0.03338 0.25252,0.0104 0.0438,0.04378 -0.034,0.07492 -0.17292,0.0692 -0.15349,-0.0063 -0.1847,-0.03754 -0.0796,-0.0796 z m 16.724311,-0.129008 c 0.0906,-0.03655 0.2388,-0.03655 0.32938,0 0.0906,0.03655 0.0165,0.06645 -0.16469,0.06645 -0.18116,0 -0.25527,-0.0299 -0.16469,-0.06645 z M 49.638668,6.8228201 c 0.0906,-0.03655 0.2388,-0.03655 0.32938,0 0.0906,0.03655 0.0165,0.06645 -0.16469,0.06645 -0.18116,0 -0.25527,-0.0299 -0.16469,-0.06645 z m 14.237491,-0.0027 c 0.0951,-0.03806 0.20875,-0.03338 0.25253,0.0104 0.0438,0.04378 -0.034,0.07492 -0.17293,0.0692 -0.15348,-0.0063 -0.1847,-0.03754 -0.0796,-0.0796 z M 50.824448,6.6911121 c 0.0906,-0.03655 0.2388,-0.03655 0.32938,0 0.0906,0.03655 0.0165,0.06645 -0.16469,0.06645 -0.18116,0 -0.25527,-0.0299 -0.16469,-0.06645 z m 11.794341,-0.004 c 0.12819,-0.0334 0.30605,-0.03121 0.39525,0.0049 0.0892,0.03609 -0.0157,0.06342 -0.23307,0.06074 -0.21739,-0.0027 -0.29038,-0.03221 -0.16218,-0.06562 z M 52.141968,6.5594051 c 0.0906,-0.03655 0.2388,-0.03655 0.32938,0 0.0906,0.03655 0.0165,0.06645 -0.16469,0.06645 -0.18116,0 -0.25527,-0.0299 -0.16469,-0.06645 z m 9.156781,-0.0036 c 0.12682,-0.03314 0.33433,-0.03314 0.46114,0 0.12681,0.03314 0.023,0.06025 -0.23057,0.06025 -0.25362,0 -0.35738,-0.02711 -0.23057,-0.06025 z m -7.315191,-0.136023 c 0.23389,-0.0291 0.64891,-0.02958 0.922271,-0.0011 0.27335,0.02852 0.082,0.05233 -0.425261,0.05292 -0.50724,5.85e-4 -0.7309,-0.02275 -0.49701,-0.05186 z m 4.611331,0 c 0.2339,-0.0291 0.64891,-0.02958 0.92227,-0.0011 0.27336,0.02852 0.082,0.05233 -0.42526,0.05292 -0.50724,5.85e-4 -0.7309,-0.02275 -0.49701,-0.05186 z"
       id="path3580" />
    <path
       style="fill:none;stroke:#ea5e28;stroke-width:0.131752;stroke-opacity:1"
       d="M 53.953558,72.375286 C 50.147438,72.202471 45.744768,71.461167 41.898228,70.345459 34.13732,68.094371 26.636465,63.532952 22.041846,58.270402 19.876861,55.790688 18.66369,53.982828 17.327243,51.244728 15.306885,47.105435 14.574113,43.96225 14.57821,39.452896 c 0.0041,-4.566005 0.71732,-7.622023 2.751817,-11.791831 3.240014,-6.640578 8.975262,-12.154131 16.639054,-15.995872 5.287253,-2.6504189 10.816277,-4.2329869 17.349437,-4.9659169 3.684021,-0.413297 9.286251,-0.293704 13.330801,0.284576 11.51043,1.645734 21.9624,7.2032059 28.13279,14.9586289 3.24547,4.079164 5.18485,8.303003 6.12056,13.330178 0.32826,1.763612 0.32717,6.51526 -0.002,8.323961 -0.75588,4.154465 -2.1581,7.624968 -4.50083,11.139544 -5.99689,8.996557 -16.9036,15.262385 -29.93739,17.198818 -1.73974,0.258472 -7.66716,0.673835 -8.07156,0.565613 -0.0362,-0.0097 -1.13307,-0.06609 -2.437421,-0.125309 z m 6.597671,-7.497691 c 8.76347,-0.823535 16.42071,-4.140276 21.93572,-9.501471 6.64461,-6.459308 8.84432,-15.436413 5.71614,-23.327832 -1.30582,-3.294166 -2.89096,-5.677531 -5.55682,-8.355057 -3.76281,-3.779263 -8.99793,-6.743237 -14.72696,-8.337984 -9.41147,-2.619797 -19.946531,-1.736313 -28.354126,2.377814 -3.539525,1.732011 -6.117951,3.565124 -8.682923,6.173059 -1.600859,1.627675 -1.933399,2.035152 -3.20519,3.927471 -2.812905,4.185371 -4.081273,9.626466 -3.366361,14.44115 0.973262,6.554584 4.828113,12.256837 11.205572,16.575739 1.518702,1.028488 1.56391,1.054403 3.746896,2.147971 4.066781,2.037257 8.382761,3.283074 13.175231,3.803061 2.02166,0.21935 6.173881,0.258288 8.112821,0.07608 z"
       id="path3578" />
  </g>
</svg>
